<svg id="layer_1" data-name="layer 1" xmlns="http://www.w3.org/2000/svg" viewBox="0 0 180 180"><defs><style>.cls-1{fill:none;}.cls-2{fill:#382673;}.cls-3{fill:#6e4f3e;}.cls-4{fill:#54290c;}.cls-5{fill:#7856db;}.cls-6{fill:#4a1e00;}.cls-7{fill:#7a3916;}.cls-8{fill:#ba9e84;}</style></defs><rect class="cls-1" width="180" height="180"/><path class="cls-2" d="M19.78,128.87h4.57l9.95,22.44,10-22.44h4.6L34.25,161.58Z"/><path class="cls-2" d="M60.07,127.55,83.5,151.64V128.82h4.33V162L64.4,138v22.51H60.07Z"/><path class="cls-2" d="M96,144.48a15.64,15.64,0,0,1,5.18-11.76,17.43,17.43,0,0,1,12.43-4.89,17,17,0,0,1,12.21,4.93A15.72,15.72,0,0,1,131,144.48a16.36,16.36,0,0,1-5.06,12.14,17.92,17.92,0,0,1-24.79,0A16.3,16.3,0,0,1,96,144.48Zm30.35.2a11.72,11.72,0,0,0-3.78-8.84,13,13,0,0,0-9.31-3.59,12.4,12.4,0,0,0-9,3.66,11.83,11.83,0,0,0-3.74,8.77,11.55,11.55,0,0,0,3.84,8.78,13.25,13.25,0,0,0,9.42,3.59,12.18,12.18,0,0,0,8.84-3.66A11.83,11.83,0,0,0,126.38,144.68Z"/><path class="cls-2" d="M158,132.35l-3.5,2.81A14.19,14.19,0,0,0,152,133a6.23,6.23,0,0,0-3.27-.71,6.31,6.31,0,0,0-3.78,1.06,3.21,3.21,0,0,0-1.45,2.71,3.32,3.32,0,0,0,1.26,2.55,17.52,17.52,0,0,0,4.33,2.41,30.83,30.83,0,0,1,4.75,2.44,12.19,12.19,0,0,1,2.79,2.5,9.9,9.9,0,0,1,1.63,2.88,9.48,9.48,0,0,1,.53,3.21,9,9,0,0,1-2.87,6.74,9.63,9.63,0,0,1-6.95,2.78,11.8,11.8,0,0,1-7-2.18,13.66,13.66,0,0,1-4.69-6.53l4.33-1.22q2.37,5.35,7.24,5.35a5.67,5.67,0,0,0,3.93-1.41,4.61,4.61,0,0,0,1.57-3.57,4.8,4.8,0,0,0-.83-2.59,7.11,7.11,0,0,0-2-2.15,21.16,21.16,0,0,0-3.88-1.93,28,28,0,0,1-4.09-2,10.82,10.82,0,0,1-2.49-2.16,9,9,0,0,1-1.53-2.5A7.14,7.14,0,0,1,139,136a7.41,7.41,0,0,1,2.74-5.8,9.7,9.7,0,0,1,6.64-2.4,13.36,13.36,0,0,1,5.24,1.12A10.75,10.75,0,0,1,158,132.35Z"/><path class="cls-3" d="M87.15,38.92a42,42,0,0,1,17.6,15.71c-.21-.68-.43-1.36-.68-2.05A30,30,0,0,0,88.67,35.5a26.85,26.85,0,0,0-22-1.31c-.61.23-1.2.48-1.78.74A38.19,38.19,0,0,1,87.15,38.92Z"/><path class="cls-4" d="M87.45,38.07a34,34,0,0,1,16.22,10c-.25-.51-.52-1-.82-1.53A24.25,24.25,0,0,0,88.18,35.14a21.67,21.67,0,0,0-17.73,2c-.45.27-.89.55-1.31.84A30.89,30.89,0,0,1,87.45,38.07Z"/><path class="cls-5" d="M106.36,18.58A21.54,21.54,0,0,0,84.82,40.13c0,.15,0,.29,0,.44a12.92,12.92,0,0,1,25.19,4c0,21.9-7.92,43.5-24.27,46.05,14.88,7.55,40.44,9.41,47.62-10.12a59.89,59.89,0,0,0,2.73-17.47C136.1,36.31,124.61,18.58,106.36,18.58Z"/><path class="cls-2" d="M50.17,50.76c-11.12,0-20.49,13.9-22.61,23.31,2.35-2.41,6.84-4.79,10.47-4.79,18.53,0,2,51.9,45.46,51.9,25.8,0,43.42-19.63,49.88-40.63-9.31,25.33-49.54,14.68-57.3,2.3C70.06,73.27,67.73,50.76,50.17,50.76Z"/><path class="cls-6" d="M64.91,111.58q-23.05-7.71-35.13-23c.36,1,.76,2.1,1.22,3.15q7.81,17.85,30.44,25.42,22.35,7.49,45.65,0c1.29-.42,2.54-.86,3.77-1.33A98.42,98.42,0,0,1,64.91,111.58Z"/><path class="cls-4" d="M112.64,111.85a96.84,96.84,0,0,1-46.26,1.41c1.29.57,2.59,1.14,3.94,1.66q22.91,9,45.48,2.75,22.3-6.12,30.41-23.67c.45-1,.84-1.94,1.2-2.92Q135.22,105.63,112.64,111.85Z"/><path class="cls-7" d="M108.77,109.19a89.62,89.62,0,0,1-35.11,0c1,.38,1.93.75,3,1.1A64.85,64.85,0,0,0,111,112.84q17.05-3.39,23.58-14.08c.36-.59.68-1.18,1-1.78Q126,105.76,108.77,109.19Z"/><path class="cls-3" d="M102.59,109.18a58.87,58.87,0,0,1-29.46,2.48c.87.34,1.76.67,2.67,1q15.48,5.2,29.35.31,13.69-4.83,17.25-16.78c.19-.66.35-1.32.49-2Q116.44,104.29,102.59,109.18Z"/><path class="cls-8" d="M91.27,111.61q-20.31-.56-34.33-9.29c.6.71,1.22,1.4,1.9,2.08Q70.27,116,90.21,116.52a58.88,58.88,0,0,0,35.66-10.35c.88-.6,1.72-1.21,2.55-1.84A83.37,83.37,0,0,1,91.27,111.61Z"/><path class="cls-4" d="M72,110.15q-22-6.91-34.59-20.82c.44,1,.9,1.91,1.42,2.86q8.89,16.2,30.49,23a66.91,66.91,0,0,0,42.15-.2c1.15-.38,2.26-.79,3.35-1.22A94.55,94.55,0,0,1,72,110.15Z"/><path class="cls-3" d="M78.78,114.74q-21-4.15-33.27-16.19c.43.88.89,1.75,1.41,2.62Q55.77,115.89,76.38,120a63,63,0,0,0,39.88-5.14c1.08-.5,2.12-1,3.14-1.58A86.71,86.71,0,0,1,78.78,114.74Z"/></svg>